<?xml version="1.0" encoding="utf-8"?>
<svg viewBox="0 0 250 100" xmlns="http://www.w3.org/2000/svg">
  <defs>
    <linearGradient gradientUnits="userSpaceOnUse" x1="258.92" y1="99.623" x2="258.92" y2="161.668" id="gradient-0" gradientTransform="matrix(0.716544, 0, 0, 0.607487, -56.72589, -25.439306)">
      <stop offset="0" style="stop-color: rgba(85, 1, 163, 1)"/>
      <stop offset="1" style="stop-color: rgba(32, 0, 62, 1)"/>
    </linearGradient>
  </defs>
  <path d="M 32.883 49.361 C 32.883 49.361 35.249 49.127 36.377 47.979 C 36.932 47.414 37.155 46.738 36.661 45.637 C 36.144 44.489 34.86 43.03 32.252 41.114 C 27.498 37.613 17.536 31.408 10.82 32.698 C 8.848 33.062 7.553 33.242 6.833 33.28 C 6.453 33.299 6.12 33.271 5.964 33.189 C 5.895 33.151 5.792 33.045 5.766 32.969 C 5.741 32.89 5.762 32.753 5.794 32.69 C 5.843 32.606 5.959 32.506 6.063 32.444 C 6.722 32.034 9.175 31.267 12.345 30.534 C 18.667 29.07 28.164 27.683 32.685 29.396 C 33.449 29.717 33.919 30.252 34.184 30.788 C 34.451 31.324 34.584 31.888 34.791 32.341 C 34.991 32.79 35.188 33.065 35.663 33.216 C 36.175 33.377 36.911 33.357 38.205 32.986 C 38.751 32.85 39.039 32.594 39.262 32.196 C 39.492 31.79 39.574 31.306 39.555 30.702 C 39.519 29.481 39.043 28.003 38.447 26.598 C 37.854 25.193 37.159 23.902 36.703 23.084 C 36.478 22.678 36.31 22.385 36.246 22.262 C 36.226 22.224 36.199 22.163 36.193 22.116 C 36.187 22.072 36.233 21.888 36.338 21.82 C 36.418 21.766 36.609 21.748 36.679 21.766 C 36.719 21.776 36.776 21.803 36.797 21.818 C 36.832 21.839 36.871 21.879 36.886 21.895 C 36.925 21.938 36.995 22.03 37.095 22.166 C 39.744 25.807 43.974 34.86 47.626 35.479 C 49.081 35.818 52.955 32.881 56.265 30.237 C 57.919 28.917 59.397 27.673 60.303 26.962 C 60.761 26.603 61.133 26.336 61.314 26.285 C 61.366 26.271 61.5 26.262 61.577 26.282 C 61.685 26.311 61.833 26.463 61.85 26.55 C 61.867 26.634 61.829 26.762 61.793 26.827 C 61.738 26.932 61.622 27.096 61.454 27.306 C 59.406 29.882 58.293 31.679 58.105 32.954 C 58.013 33.565 58.119 33.967 58.459 34.337 C 58.802 34.713 59.331 34.979 60.181 35.193 C 69.49 37.6 85.34 36.232 86.477 36.137 L 128.209 19.624 L 115.859 35.506 C 119.211 35.778 134.258 36.875 141.246 39.612 C 144.365 40.853 146.494 40.835 148.166 40.04 C 149.836 39.245 150.951 37.682 151.889 35.652 C 153.774 31.576 154.734 25.869 157.329 22.024 C 160.471 17.433 161.69 1.241 161.69 1.241 L 161.851 -0.901 L 169.934 28.039 L 196.181 37.298 L 231.872 21.406 L 231.061 22.447 C 231.061 22.447 225.012 30.224 220.383 38.086 C 218.07 42.02 216.129 45.939 215.465 48.93 C 215.137 50.414 215.125 51.597 215.526 52.463 C 215.917 53.306 216.601 53.78 217.923 53.838 C 223.423 54.207 226.428 55.772 227.66 57.882 C 228.896 59.998 228.433 62.724 227.298 65.295 C 225.03 70.427 220.036 75.38 220.036 75.38 L 219.151 76.259 L 219.377 75.117 C 219.377 75.117 220.072 71.592 219.849 68.768 C 219.737 67.364 219.438 66.25 218.743 65.766 C 218.417 65.54 218.105 65.478 217.554 65.608 C 216.97 65.743 216.273 66.095 215.371 66.781 C 213.454 68.168 213.245 70.667 213.837 73.651 C 214.432 76.644 215.896 80.01 217.423 83.004 C 218.95 85.997 220.535 88.598 221.359 90.034 C 221.564 90.393 221.727 90.687 221.826 90.894 C 221.878 91 221.92 91.101 221.94 91.173 C 221.951 91.216 221.963 91.281 221.961 91.326 C 221.958 91.399 221.857 91.584 221.736 91.635 C 221.629 91.68 221.422 91.655 221.355 91.625 C 221.31 91.607 221.25 91.569 221.208 91.538 C 221.138 91.488 221.042 91.403 220.937 91.303 C 220.731 91.107 220.44 90.798 220.052 90.373 C 211.642 81.08 185.085 74.624 179.251 73.296 C 179.51 73.701 179.741 74.302 179.711 75.03 C 179.644 76.581 178.378 78.941 173.986 82.063 C 172.11 83.38 160.694 88.28 153.882 88.893 C 147.575 89.452 139.88 89.088 134.333 88.612 C 131.555 88.374 129.298 88.108 128.013 87.916 C 127.366 87.819 126.91 87.731 126.764 87.666 C 126.726 87.647 126.635 87.588 126.594 87.532 C 126.558 87.482 126.529 87.344 126.55 87.273 C 126.573 87.209 126.659 87.115 126.704 87.089 C 126.78 87.045 126.916 87.021 126.993 87.017 C 127.114 87.01 127.32 87.014 127.6 87.03 C 136.056 87.49 145.967 85.379 153.083 82.741 C 156.634 81.424 159.434 79.999 161.009 78.694 C 161.785 78.053 162.205 77.508 162.3 77.003 C 162.392 76.519 162.231 76.174 161.575 75.829 C 156.412 72.842 150.677 73.27 147.257 73.423 C 142.879 73.609 140.836 74.376 131.608 76.816 C 130.035 77.144 120.45 80.334 116.568 81.544 C 111.473 83.132 100.542 83.75 100.542 83.75 C 100.542 83.75 84.524 84.419 82 84.714 C 81.875 84.73 81.757 84.738 81.675 84.736 C 81.569 84.733 81.352 84.674 81.27 84.577 C 81.204 84.501 81.187 84.32 81.22 84.246 C 81.24 84.198 81.296 84.131 81.33 84.1 C 81.382 84.053 81.472 83.995 81.556 83.947 C 81.872 83.771 82.514 83.499 83.351 83.161 C 85.024 82.489 87.557 81.526 90.109 80.468 C 92.66 79.412 95.214 78.267 96.951 77.219 C 97.81 76.701 98.432 76.234 98.767 75.812 C 98.927 75.612 98.99 75.479 99 75.331 C 99.006 75.192 98.998 75.144 98.898 75.053 C 92.331 71.848 87.544 71.967 83.866 73.776 C 80.191 75.585 77.76 79.08 76.093 82.795 C 74.43 86.511 73.586 90.364 73.139 92.79 C 72.916 94.003 72.789 94.865 72.706 95.171 C 72.695 95.214 72.68 95.263 72.664 95.298 C 72.653 95.32 72.625 95.365 72.603 95.394 C 72.561 95.443 72.369 95.539 72.247 95.527 C 72.131 95.516 71.978 95.403 71.948 95.354 C 71.929 95.326 71.911 95.282 71.904 95.257 C 71.892 95.222 71.882 95.17 71.877 95.123 C 71.852 94.947 71.836 94.607 71.816 94.085 C 71.615 88.097 68.101 80.349 62.785 75.893 C 60.136 73.673 57.143 72.326 53.834 72.403 C 50.515 72.482 46.991 73.98 43.32 77.652 C 43.308 77.664 43.295 77.675 43.286 77.684 L 43.285 77.684 C 43.289 77.681 43.293 77.678 43.295 77.674 C 43.295 77.674 43.292 77.679 43.285 77.684 L 42.697 77.281 C 42.926 77.031 43.666 76.149 44.166 74.918 C 44.671 73.671 44.914 72.172 44.143 70.595 C 42.568 67.371 36.88 64.043 20.392 63.109 C 18.28 62.988 17.148 62.894 16.785 62.794 C 16.724 62.777 16.636 62.743 16.586 62.712 C 16.548 62.686 16.48 62.622 16.454 62.574 C 16.42 62.513 16.414 62.375 16.442 62.309 C 16.494 62.185 16.716 62.076 16.839 62.043 C 17.047 61.989 17.418 61.932 17.891 61.873 C 19.772 61.632 23.636 61.268 27.423 60.522 C 31.211 59.776 34.82 58.687 36.351 56.983 C 37.1 56.152 37.319 55.276 36.822 54.115 C 36.307 52.925 35.045 51.561 32.688 49.929 L 31.979 49.437 L 32.883 49.361 Z M 37.529 53.895 C 38.099 55.216 37.798 56.433 36.95 57.375 C 35.293 59.217 31.423 60.396 27.594 61.15 C 24.383 61.781 21.128 62.142 19.059 62.382 C 19.458 62.409 19.918 62.437 20.443 62.467 C 37.119 63.457 43.185 66.961 44.84 70.347 C 45.683 72.074 45.41 73.822 44.881 75.127 C 44.836 75.238 44.79 75.345 44.742 75.451 C 47.859 72.955 50.945 71.827 53.814 71.761 C 57.305 71.678 60.588 73.151 63.314 75.433 C 68.271 79.589 71.709 86.615 72.438 92.445 C 72.9 89.994 73.755 86.21 75.388 82.566 C 77.077 78.799 79.652 75.106 83.487 73.219 C 87.321 71.332 92.529 71.247 99.314 74.514 L 99.369 74.542 L 99.404 74.574 C 99.625 74.796 99.771 75.1 99.755 75.364 C 99.738 75.617 99.597 75.917 99.393 76.171 C 99.004 76.662 98.281 77.207 97.386 77.745 C 95.608 78.817 93.002 79.986 90.439 81.049 C 87.875 82.111 85.339 83.075 83.674 83.742 C 83.473 83.825 83.285 83.9 83.112 83.972 C 87.61 83.646 100.274 83.119 100.504 83.11 C 100.715 83.096 111.318 82.508 116.308 80.942 C 120.181 79.731 129.796 76.535 131.415 76.193 C 140.595 73.767 142.709 72.992 147.218 72.781 C 150.627 72.627 156.592 72.253 161.993 75.294 C 162.783 75.773 163.171 76.444 163.047 77.104 C 162.926 77.741 162.37 78.466 161.536 79.156 C 159.9 80.513 156.979 81.998 153.386 83.332 C 147.31 85.584 139.149 87.457 131.587 87.704 C 132.441 87.793 133.388 87.885 134.406 87.971 C 139.941 88.446 147.556 88.81 153.803 88.254 C 160.485 87.672 171.7 82.844 173.503 81.568 C 177.795 78.56 178.894 76.435 178.955 75.007 C 178.983 74.324 178.775 73.858 178.52 73.505 C 178.281 73.174 178.07 73.029 178.031 73.017 L 178.292 72.419 C 178.292 72.419 210.974 79.401 220.65 89.979 C 220.989 90.415 221.233 90.734 221.394 90.946 C 220.692 89.97 218.612 86.948 216.731 83.261 C 215.194 80.249 213.699 76.811 213.092 73.759 C 212.484 70.694 212.828 67.899 214.87 66.299 C 215.826 65.579 216.67 65.146 217.355 64.985 C 218.075 64.818 218.763 64.95 219.222 65.268 C 220.092 65.876 220.486 67.27 220.602 68.725 C 220.834 71.623 220.314 74.069 220.314 74.069 C 221.816 72.438 224.369 70.098 226.589 65.069 C 227.699 62.562 228.126 60.121 226.984 58.168 C 225.839 56.21 223.196 54.803 217.868 54.48 C 216.341 54.357 215.286 53.698 214.823 52.699 C 214.368 51.722 214.381 50.351 214.724 48.811 C 215.402 45.754 217.383 41.75 219.707 37.798 C 224.355 29.899 227.851 25.498 229.645 23.124 L 196.218 38.007 L 169.286 28.508 L 162.255 3.328 C 161.797 7.86 161.174 17.617 157.984 22.348 C 155.436 26.075 154.508 31.743 152.592 35.887 C 151.629 37.969 150.366 39.73 148.534 40.602 C 146.703 41.474 144.209 41.467 140.932 40.196 C 134.068 37.487 115.162 36.096 115.162 36.096 L 114.53 36.051 L 126.104 21.167 L 86.678 36.768 L 86.615 36.773 C 86.615 36.773 69.419 38.228 59.964 35.809 C 59.034 35.566 58.293 35.203 57.864 34.734 C 57.426 34.257 57.249 33.593 57.356 32.873 C 57.527 31.717 58.386 30.186 59.861 28.202 C 59.016 28.893 57.944 29.779 56.78 30.709 C 53.459 33.36 49.248 36.377 47.465 36.106 C 44.831 35.563 41.948 31.234 39.547 27.361 C 39.968 28.503 40.282 29.678 40.312 30.686 C 40.331 31.342 40.222 31.982 39.943 32.476 C 39.661 32.976 39.128 33.388 38.443 33.597 C 37.043 33.984 36.05 34.026 35.402 33.82 C 34.712 33.602 34.313 33.08 34.084 32.572 C 33.858 32.069 33.725 31.517 33.489 31.039 C 33.251 30.563 32.984 30.194 32.374 29.983 C 28.074 28.295 18.831 29.7 12.542 31.154 C 10.28 31.679 8.44 32.202 7.376 32.588 C 8.105 32.508 9.177 32.343 10.66 32.07 C 17.677 30.833 27.967 37.109 32.745 40.629 C 35.409 42.592 36.814 44.176 37.366 45.407 C 37.94 46.685 37.611 47.725 36.956 48.394 C 35.663 49.71 33.763 49.857 33.763 49.857 C 35.812 51.366 36.975 52.608 37.529 53.895 Z" style=""/>
  <path d="M 69.449 68.132 L 59.182 68.728 L 48.916 69.325 C 51.876 68.51 53.209 67.562 54.131 66.924 C 55.055 66.285 55.565 65.951 56.883 66.363 L 59.748 66.132 L 62.613 65.901 L 64.403 56.62 L 66.195 47.338 L 64.175 46.916 L 62.156 46.493 C 61.666 46.523 60.335 45.67 59.162 44.805 C 57.99 43.94 56.977 43.062 57.126 43.043 L 61.755 43.9 L 66.384 44.757 L 70.102 44.661 L 73.819 44.566 C 74.078 44.598 74.57 44.452 75.186 44.263 C 75.802 44.076 76.54 43.845 77.292 43.708 C 78.158 43.55 79.064 43.469 79.774 43.423 C 80.481 43.378 80.987 43.372 81.052 43.365 C 81.134 43.357 80.916 43.441 80.6 43.586 C 80.286 43.729 79.878 43.931 79.581 44.162 C 79.204 44.453 78.968 44.858 78.929 45.196 C 78.884 45.535 79.038 45.808 79.437 45.841 C 79.634 45.856 80.326 45.937 80.924 46.031 C 81.522 46.122 82.029 46.226 81.849 46.287 C 81.716 46.333 81.375 46.507 81.115 46.707 C 80.856 46.905 80.676 47.128 80.862 47.269 C 81.244 47.558 81.58 47.925 81.866 48.352 C 82.152 48.779 82.39 49.266 82.578 49.793 C 82.877 50.644 83.047 51.562 83.089 52.545 C 83.131 53.53 83.044 54.579 82.829 55.696 L 82.78 55.951 L 82.73 56.206 C 82.52 57.294 82.207 58.335 81.793 59.323 C 81.379 60.311 80.864 61.251 80.246 62.139 C 79.625 63.025 78.929 63.822 78.156 64.532 C 77.381 65.242 76.535 65.866 75.611 66.401 C 74.687 66.936 73.711 67.348 72.683 67.637 C 71.657 67.925 70.579 68.089 69.449 68.132 Z M 69.649 47.21 L 67.857 56.494 L 66.065 65.776 C 66.065 65.776 66.249 65.819 66.476 65.878 C 66.701 65.936 66.972 66.009 67.149 66.068 C 67.398 66.151 67.809 65.923 68.16 65.672 C 68.508 65.424 68.795 65.154 68.795 65.154 C 68.388 65.844 68.613 66.097 69.022 66.137 C 69.431 66.177 70.029 66.001 70.367 65.832 C 70.573 65.73 70.788 65.515 70.99 65.28 C 71.19 65.043 71.374 64.788 71.517 64.607 C 71.683 64.399 71.966 63.868 72.2 63.428 C 72.433 62.988 72.615 62.64 72.579 62.796 C 72.484 63.192 72.802 63.716 73.229 64.087 C 73.656 64.457 74.192 64.677 74.53 64.462 C 74.878 64.242 75.21 63.943 75.482 63.599 C 75.757 63.257 75.978 62.868 76.108 62.466 C 76.227 62.102 76.086 61.239 75.959 60.552 C 75.837 59.865 75.725 59.353 75.904 59.693 C 76.204 60.27 76.511 60.544 76.823 60.679 C 77.133 60.814 77.445 60.808 77.759 60.826 C 77.953 60.837 78.364 60.795 78.718 60.586 C 79.069 60.378 79.364 60.004 79.324 59.347 C 79.264 58.304 79.05 57.793 78.661 57.542 C 78.274 57.294 77.71 57.306 76.945 57.306 C 77.036 57.359 77.672 56.847 78.327 56.224 C 78.982 55.602 79.656 54.865 79.825 54.467 C 80.215 53.553 80.123 51.834 79.802 50.566 C 79.484 49.299 78.936 48.482 78.414 49.372 C 78.125 49.869 77.517 50.306 77.099 50.542 C 76.683 50.776 76.458 50.808 76.934 50.491 C 77.32 50.233 77.597 49.783 77.683 49.324 C 77.768 48.865 77.656 48.399 77.268 48.106 C 76.765 47.733 76.186 47.46 75.532 47.288 C 74.876 47.118 74.145 47.047 73.334 47.076 L 71.491 47.144 Z M 71.887 57.543 C 71.887 57.353 68.78 57.243 65.671 57.262 C 62.564 57.283 59.456 57.431 59.456 57.754 C 59.765 57.741 59.555 56.573 59.009 55.189 C 58.461 53.806 57.575 52.205 56.533 51.322 C 57.079 51.405 60.158 52.453 63.134 53.426 C 66.11 54.399 68.988 55.295 69.133 55.07 L 70.509 56.307 Z M 91.532 67.661 C 90.655 67.694 89.852 67.631 89.123 67.474 C 88.396 67.316 87.742 67.064 87.162 66.718 C 86.59 66.37 86.1 65.948 85.7 65.453 C 85.296 64.959 84.982 64.391 84.753 63.749 C 84.524 63.102 84.395 62.402 84.364 61.648 C 84.332 60.892 84.401 60.082 84.568 59.219 L 84.637 58.862 L 84.705 58.507 C 84.865 57.675 85.11 56.883 85.442 56.132 C 85.772 55.381 86.184 54.672 86.684 54.003 C 87.184 53.334 87.73 52.733 88.324 52.197 C 88.916 51.663 89.559 51.194 90.25 50.792 C 90.939 50.387 91.691 50.144 92.448 49.966 C 93.206 49.788 93.97 49.674 94.68 49.526 C 95.182 49.423 96.072 49.236 96.894 49.059 C 97.718 48.883 98.48 48.719 98.723 48.66 C 98.813 48.638 98.577 48.756 98.299 48.917 C 98.022 49.077 97.703 49.281 97.622 49.432 C 97.561 49.551 97.577 49.695 97.662 49.826 C 97.746 49.96 97.901 50.081 98.116 50.16 C 98.252 50.206 98.314 50.022 98.354 49.835 C 98.394 49.646 98.411 49.454 98.453 49.487 C 98.622 49.619 98.792 50.017 98.992 50.408 C 99.191 50.798 99.423 51.178 99.71 51.27 C 99.869 51.32 100.045 51.142 100.187 50.982 C 100.327 50.819 100.435 50.672 100.452 50.784 C 100.473 50.904 100.458 51.189 100.44 51.491 C 100.421 51.793 100.401 52.11 100.414 52.29 C 100.422 52.399 100.381 52.528 100.377 52.668 C 100.374 52.809 100.407 52.962 100.566 53.125 C 100.738 53.302 101.034 53.489 101.27 53.628 C 101.505 53.767 101.679 53.863 101.611 53.861 C 100.91 53.846 100.781 54.247 100.786 54.849 C 100.794 55.45 100.938 56.253 100.785 57.047 L 100.593 58.042 L 100.401 59.036 L 100.023 59.209 L 99.645 59.383 C 99.638 59.05 99.384 58.809 99.026 58.75 C 98.667 58.69 98.203 58.807 97.775 59.192 L 97.389 59.624 L 97.001 60.057 L 96.604 59.554 L 96.207 59.052 C 96.207 59.052 96.088 58.966 95.931 58.879 C 95.774 58.793 95.58 58.706 95.431 58.7 C 95.316 58.695 95.101 58.814 94.915 58.935 C 94.728 59.057 94.571 59.181 94.571 59.181 L 94.18 59.54 L 93.79 59.9 C 93.839 59.876 93.639 59.668 93.408 59.475 C 93.176 59.283 92.914 59.105 92.831 59.138 C 92.831 59.138 92.725 59.035 92.586 58.942 C 92.448 58.847 92.275 58.761 92.142 58.79 C 92.015 58.819 91.886 58.942 91.787 59.057 C 91.688 59.173 91.622 59.281 91.622 59.281 C 91.575 58.974 91.146 58.984 90.739 59.084 C 90.334 59.182 89.951 59.37 90.001 59.418 L 89.037 59.453 L 88.074 59.49 L 88.039 59.533 L 88.007 59.574 C 87.911 60.134 87.869 60.661 87.881 61.154 C 87.891 61.648 87.954 62.108 88.073 62.534 C 88.131 62.749 88.174 63.141 88.252 63.5 C 88.329 63.858 88.441 64.181 88.64 64.258 C 88.84 64.331 89.675 63.669 90.408 63.063 C 91.142 62.457 91.774 61.907 91.559 62.205 C 91.461 62.341 90.999 62.812 90.594 63.294 C 90.189 63.777 89.838 64.272 89.964 64.461 C 90.127 64.705 90.491 64.885 90.889 65.004 C 91.284 65.121 91.715 65.175 92.014 65.164 C 92.6 65.142 93.159 65.083 93.689 64.986 C 94.217 64.892 94.714 64.759 95.186 64.589 C 95.657 64.417 96.104 64.221 96.529 63.995 C 96.952 63.771 97.352 63.517 97.729 63.237 L 98.203 64.249 L 98.677 65.258 C 98.282 65.572 97.834 65.864 97.337 66.134 C 96.837 66.406 96.287 66.656 95.686 66.887 C 95.085 67.115 94.438 67.294 93.746 67.423 C 93.053 67.553 92.315 67.634 91.532 67.661 Z M 88.645 56.918 L 88.65 56.96 L 88.655 56.999 L 93.041 56.838 L 97.427 56.676 L 97.469 56.464 L 97.508 56.25 C 97.589 55.831 97.626 55.436 97.617 55.062 C 97.609 54.688 97.557 54.338 97.458 54.006 C 97.358 53.68 97.215 53.393 97.025 53.14 C 96.836 52.889 96.602 52.674 96.32 52.496 C 96.036 52.316 95.704 52.183 95.324 52.101 C 94.941 52.019 94.512 51.988 94.03 52.005 C 93.646 52.019 93.268 52.086 92.898 52.203 C 92.526 52.32 92.161 52.489 91.805 52.71 C 91.447 52.93 91.111 53.187 90.797 53.48 C 90.48 53.77 90.186 54.097 89.911 54.461 C 89.642 54.823 89.402 55.21 89.189 55.62 C 88.978 56.028 88.797 56.46 88.645 56.918 Z M 94.83 42.124 L 96.017 44.268 L 97.203 46.411 L 97.126 46.414 L 97.048 46.416 L 95.836 46.461 L 94.62 46.505 C 94.62 46.505 94.746 46.298 94.84 46.012 C 94.936 45.729 95.003 45.368 94.883 45.065 C 94.783 44.809 94.41 44.659 94.093 44.521 C 93.777 44.381 93.517 44.251 93.641 44.034 C 93.768 43.813 93.312 43.672 92.826 43.584 C 92.339 43.495 91.819 43.464 91.819 43.464 C 91.819 43.464 91.996 43.335 92.162 43.165 C 92.329 42.995 92.484 42.786 92.439 42.625 C 92.337 42.27 91.78 41.99 91.249 41.799 C 90.72 41.607 90.214 41.506 90.214 41.506 L 92.522 41.815 Z M 110.827 66.953 C 109.948 66.985 109.146 66.923 108.418 66.766 C 107.689 66.608 107.036 66.356 106.457 66.009 C 105.882 65.66 105.395 65.239 104.993 64.746 C 104.59 64.251 104.276 63.683 104.046 63.041 C 103.819 62.395 103.69 61.695 103.658 60.938 C 103.628 60.183 103.697 59.374 103.864 58.509 L 103.933 58.155 L 104.001 57.799 C 104.162 56.966 104.406 56.176 104.736 55.425 C 105.067 54.674 105.479 53.964 105.979 53.294 C 106.478 52.626 106.736 52.323 107.047 52.043 C 107.361 51.762 107.727 51.504 108.44 50.923 C 108.771 50.655 109.22 50.392 109.674 50.165 C 110.126 49.939 110.58 49.751 110.916 49.637 C 111.057 49.589 111.415 49.54 111.74 49.503 C 112.063 49.466 112.351 49.44 112.351 49.44 C 112.492 49.499 112.565 49.34 112.584 49.147 C 112.603 48.954 112.566 48.729 112.487 48.658 C 112.395 48.575 112.811 48.753 113.295 48.942 C 113.781 49.13 114.336 49.331 114.528 49.295 C 114.694 49.264 114.836 49.198 114.929 49.088 C 115.02 48.977 115.062 48.822 115.027 48.61 C 115.006 48.492 115.239 48.687 115.509 48.922 C 115.78 49.157 116.086 49.43 116.21 49.467 C 116.408 49.526 116.576 49.493 116.73 49.423 C 116.883 49.352 117.022 49.245 117.156 49.152 C 117.3 49.055 117.328 48.825 117.318 48.617 C 117.309 48.411 117.263 48.227 117.263 48.227 C 117.263 48.227 117.045 47.913 116.86 47.623 C 116.672 47.334 116.516 47.071 116.644 47.171 C 117.131 47.555 117.941 48.532 118.665 49.558 C 119.387 50.584 120.025 51.654 120.164 52.222 C 120.304 52.792 120.358 53.424 120.341 54.112 C 120.322 54.801 120.232 55.545 120.079 56.338 C 120.079 56.338 120.136 56.91 120.108 57.439 C 120.079 57.968 119.967 58.456 119.628 58.29 C 119.233 58.096 118.993 58.286 118.731 58.48 C 118.469 58.676 118.184 58.874 117.698 58.697 C 117.215 58.52 116.804 58.603 116.517 58.733 C 116.229 58.86 116.061 59.033 116.061 59.033 L 115.359 58.948 L 114.659 58.861 L 114.233 59.601 L 113.807 60.34 C 113.807 60.34 113.76 60.089 113.659 59.8 C 113.56 59.51 113.41 59.182 113.204 59.022 C 113.164 58.989 113.005 58.959 112.814 58.966 C 112.624 58.972 112.4 59.017 112.232 59.134 C 112.096 59.229 112.052 59.445 112.029 59.609 C 112.006 59.774 112.004 59.889 111.951 59.785 C 111.778 59.44 111.855 59.091 111.975 58.827 C 112.096 58.564 112.257 58.386 112.257 58.386 C 112.257 58.386 111.845 58.491 111.382 58.626 C 110.917 58.759 110.4 58.922 110.197 59.039 C 109.907 59.207 109.56 59.546 109.288 59.841 C 109.015 60.137 108.815 60.392 108.815 60.392 L 108.884 59.557 L 108.954 58.722 L 108.16 58.751 L 107.368 58.78 L 107.335 58.823 L 107.3 58.866 C 107.205 59.426 107.163 59.951 107.174 60.446 C 107.185 60.938 107.25 61.398 107.366 61.825 C 107.483 62.251 107.655 62.631 107.882 62.962 C 108.106 63.292 108.384 63.575 108.719 63.809 C 109.052 64.044 109.434 64.215 109.864 64.323 C 110.295 64.43 110.777 64.474 111.309 64.454 C 111.67 64.441 111.995 64.423 112.304 64.378 C 112.611 64.333 112.905 64.262 113.2 64.142 C 113.386 64.066 113.69 63.784 113.942 63.56 C 114.192 63.339 114.39 63.177 114.363 63.342 C 114.299 63.745 114.682 63.846 115.143 63.813 C 115.603 63.781 116.141 63.614 116.373 63.484 C 116.557 63.382 116.638 63.204 116.711 63.023 C 116.787 62.839 116.857 62.652 117.024 62.528 C 117.024 62.528 117.321 62.565 117.697 62.558 C 118.072 62.551 118.524 62.503 118.829 62.333 C 119.065 62.201 119.428 61.799 119.729 61.43 C 120.033 61.061 120.276 60.726 120.276 60.726 C 120.276 60.726 120.297 61.144 120.242 61.625 C 120.187 62.106 120.051 62.648 119.736 62.897 C 119.421 63.147 118.979 63.56 118.619 63.911 C 118.257 64.262 117.972 64.55 117.972 64.55 C 117.577 64.863 117.129 65.155 116.63 65.427 C 116.13 65.697 115.581 65.948 114.98 66.178 C 114.38 66.407 113.733 66.586 113.04 66.717 C 112.349 66.845 111.61 66.924 110.827 66.953 Z M 107.941 56.209 L 107.947 56.249 L 107.952 56.29 L 112.336 56.13 L 116.722 55.968 L 116.761 55.756 L 116.803 55.541 C 116.884 55.123 116.919 54.727 116.911 54.354 C 116.903 53.98 116.85 53.629 116.753 53.298 C 116.655 52.973 116.511 52.685 116.321 52.432 C 116.13 52.181 115.895 51.965 115.617 51.788 C 115.331 51.607 115.001 51.475 114.617 51.394 C 114.237 51.312 113.806 51.28 113.326 51.298 C 112.939 51.311 112.561 51.377 112.191 51.494 C 111.819 51.612 111.455 51.781 111.099 52 C 110.742 52.222 110.405 52.479 110.09 52.77 C 109.774 53.062 109.479 53.389 109.206 53.752 C 108.937 54.113 108.696 54.501 108.485 54.91 C 108.274 55.32 108.092 55.753 107.941 56.209 Z M 111.825 45.733 L 110.418 45.785 L 109.01 45.837 L 109.053 45.623 L 109.094 45.41 L 111.622 43.413 L 114.149 41.416 L 115.195 41.377 L 116.243 41.338 L 118.047 43.189 L 119.851 45.039 L 119.813 45.239 L 119.773 45.441 L 118.362 45.492 L 116.948 45.543 L 115.889 44.39 L 114.83 43.236 L 113.328 44.485 Z M 128.173 72.664 L 122.854 72.719 L 117.533 72.772 C 117.533 72.772 117.863 72.696 118.228 72.58 C 118.596 72.465 118.996 72.308 119.143 72.146 C 119.258 72.018 119.461 71.856 119.635 71.725 C 119.809 71.598 119.952 71.499 119.952 71.499 C 119.952 71.499 119.907 71.327 119.844 71.124 C 119.78 70.918 119.703 70.682 119.641 70.553 C 119.483 70.227 119.122 69.797 118.803 69.447 C 118.482 69.097 118.202 68.829 118.202 68.829 L 119.357 69.382 L 120.512 69.935 L 121.342 70.163 L 122.171 70.391 L 124.027 60.778 L 125.883 51.163 L 125.23 50.327 L 124.576 49.49 L 123.752 47.978 L 122.927 46.466 L 124.417 47.324 L 125.902 48.181 L 127.504 48.401 L 129.103 48.619 L 129.174 49.643 L 129.243 50.665 C 129.637 50.255 130.056 49.891 130.5 49.573 C 130.943 49.255 131.414 48.982 131.907 48.756 C 132.402 48.526 132.922 48.35 133.466 48.222 C 134.011 48.097 134.581 48.025 135.177 48.002 C 135.961 47.974 136.669 48.045 137.301 48.215 C 137.933 48.387 138.489 48.656 138.97 49.026 C 139.451 49.4 139.85 49.853 140.169 50.387 C 140.491 50.92 140.731 51.53 140.89 52.225 C 141.044 52.915 141.116 53.67 141.103 54.491 C 141.09 55.311 140.992 56.194 140.808 57.141 L 140.776 57.306 L 140.744 57.473 C 140.582 58.317 140.356 59.112 140.066 59.854 C 139.776 60.597 139.422 61.291 139.004 61.933 C 138.588 62.575 138.119 63.149 137.6 63.657 C 137.079 64.163 136.514 64.603 135.892 64.974 C 135.275 65.349 134.618 65.638 133.924 65.839 C 133.227 66.042 132.491 66.156 131.718 66.186 C 131.136 66.207 130.597 66.182 130.1 66.109 C 129.605 66.039 129.151 65.919 128.743 65.754 C 128.335 65.589 127.971 65.379 127.648 65.125 C 127.326 64.869 127.045 64.57 126.807 64.226 L 126.223 67.245 L 125.639 70.265 L 127.84 70.79 L 130.04 71.316 L 129.108 71.99 Z M 131.135 63.727 C 131.671 63.706 132.116 63.742 132.495 63.701 C 132.876 63.661 133.191 63.541 133.468 63.215 C 133.614 63.046 133.836 62.008 134.065 60.965 C 134.297 59.923 134.538 58.874 134.719 58.682 C 134.803 58.59 134.758 58.964 134.717 59.47 C 134.675 59.975 134.639 60.61 134.736 61.04 C 134.814 61.382 135.026 61.529 135.243 61.584 C 135.459 61.636 135.682 61.597 135.78 61.568 C 136.153 61.461 136.449 61.182 136.685 60.833 C 136.918 60.484 137.087 60.064 137.211 59.672 C 137.245 59.561 137.303 59.381 137.368 59.17 C 137.429 58.957 137.495 58.711 137.546 58.464 C 137.599 58.207 137.588 57.912 137.562 57.682 C 137.537 57.453 137.499 57.287 137.499 57.287 L 136.991 57.021 L 136.482 56.753 L 135.694 55.898 L 134.904 55.042 C 135.146 55.084 135.632 55.304 136.125 55.485 C 136.615 55.667 137.113 55.814 137.375 55.714 C 137.654 55.606 137.804 55.129 137.872 54.616 C 137.944 54.102 137.931 53.553 137.884 53.292 C 137.837 53.01 137.687 52.712 137.501 52.458 C 137.316 52.203 137.095 51.989 136.901 51.874 C 136.712 51.762 136.617 51.648 136.341 51.725 C 136.063 51.803 135.605 52.069 134.693 52.719 C 134.526 52.837 134.711 52.491 134.922 52.06 C 135.134 51.628 135.373 51.111 135.314 50.892 C 135.254 50.648 134.974 50.578 134.641 50.573 C 134.306 50.565 133.914 50.623 133.624 50.633 C 133.131 50.651 132.662 50.719 132.223 50.837 C 131.781 50.956 131.363 51.124 130.973 51.342 C 130.584 51.56 130.22 51.816 129.884 52.105 C 129.548 52.395 129.237 52.723 128.956 53.085 L 128.133 57.353 L 127.307 61.622 C 127.453 61.972 127.638 62.282 127.866 62.551 C 128.095 62.818 128.366 63.046 128.68 63.23 C 128.989 63.414 129.347 63.546 129.756 63.63 C 130.165 63.714 130.624 63.745 131.135 63.727 Z M 151.126 65.473 C 150.348 65.501 149.594 65.476 148.866 65.396 C 148.137 65.318 147.434 65.185 146.756 64.999 C 146.073 64.816 144.991 64.029 144.084 63.29 C 143.175 62.55 142.436 61.855 142.436 61.855 C 142.436 61.855 142.786 61.939 143.154 61.973 C 143.521 62.008 143.905 61.99 143.972 61.787 C 144.055 61.531 143.814 61.325 143.565 61.164 C 143.317 61.001 143.058 60.886 143.106 60.805 C 143.285 60.508 143.285 60.233 143.239 60.033 C 143.195 59.832 143.105 59.706 143.105 59.706 C 143.105 59.706 142.939 59.482 142.671 59.246 C 142.404 59.013 142.035 58.768 141.633 58.729 C 140.925 58.661 141.497 58.654 142.248 58.663 C 142.996 58.671 143.922 58.699 143.922 58.699 C 143.922 58.699 143.664 58.411 143.308 58.099 C 142.955 57.785 142.505 57.448 142.124 57.345 C 141.441 57.159 141.993 57.202 142.713 57.291 C 143.436 57.379 144.329 57.512 144.329 57.512 C 144.329 57.512 144.282 57.17 144.183 56.762 C 144.083 56.354 143.925 55.878 143.698 55.613 C 143.293 55.141 144.341 55.701 145.321 56.406 C 146.303 57.11 147.219 57.958 146.552 58.058 C 145.28 58.247 145.271 59.173 145.584 60.053 C 145.896 60.931 146.527 61.762 146.527 61.762 C 146.859 61.965 147.218 62.145 147.597 62.296 C 147.976 62.449 148.376 62.576 148.796 62.678 C 149.219 62.781 149.666 62.852 150.135 62.894 C 150.605 62.935 151.1 62.947 151.619 62.928 C 152.199 62.906 152.746 62.845 153.257 62.743 C 153.767 62.643 154.242 62.503 154.68 62.321 C 155.117 62.145 155.515 61.937 155.872 61.699 C 156.228 61.458 156.544 61.19 156.82 60.89 C 157.089 60.59 157.31 60.268 157.482 59.926 C 157.655 59.582 157.778 59.217 157.854 58.83 C 157.924 58.468 157.944 58.128 157.914 57.811 C 157.883 57.495 157.802 57.202 157.672 56.934 C 157.536 56.667 157.335 56.42 157.071 56.191 C 156.806 55.961 156.481 55.75 156.089 55.557 C 155.699 55.364 155.231 55.187 154.679 55.027 C 154.128 54.867 153.494 54.725 152.778 54.596 C 151.939 54.441 151.173 54.248 150.481 54.024 C 149.79 53.798 149.172 53.538 148.63 53.243 C 148.082 52.951 147.616 52.622 147.231 52.255 C 146.843 51.89 146.538 51.488 146.312 51.049 C 146.087 50.608 145.945 50.13 145.889 49.619 C 145.834 49.107 145.86 48.562 145.972 47.982 C 146.091 47.367 146.294 46.78 146.577 46.223 C 146.859 45.665 147.228 45.138 147.677 44.638 C 148.12 44.141 148.627 43.691 149.192 43.29 C 149.759 42.89 150.385 42.537 151.073 42.234 C 151.76 41.931 152.488 41.697 153.254 41.529 C 154.019 41.36 154.824 41.262 155.665 41.231 C 155.895 41.222 156.224 41.248 156.612 41.247 C 157.001 41.246 157.447 41.219 157.914 41.108 C 158.183 41.042 158.665 40.857 159.055 40.705 C 159.447 40.55 159.746 40.429 159.653 40.489 C 159.369 40.675 159.073 40.877 158.873 41.052 C 158.673 41.226 158.567 41.373 158.665 41.448 C 158.836 41.581 159.421 41.469 159.916 41.362 C 160.411 41.255 160.814 41.154 160.621 41.301 C 160.33 41.521 160.317 41.683 160.411 41.812 C 160.506 41.94 160.71 42.034 160.854 42.114 C 161.269 42.349 161.814 42.534 162.314 42.779 C 162.814 43.022 163.266 43.326 163.496 43.792 C 163.496 43.792 163.264 43.658 162.965 43.521 C 162.665 43.386 162.301 43.25 162.035 43.246 C 161.844 43.243 161.579 43.332 161.361 43.422 C 161.143 43.512 160.972 43.602 160.972 43.602 L 161.254 44.211 L 161.536 44.822 L 162.036 46.294 L 162.534 47.765 L 161.434 47.794 L 160.334 47.822 C 160.334 47.822 160.613 47.728 160.859 47.603 C 161.105 47.478 161.319 47.321 161.189 47.196 C 160.722 46.748 160.831 46.464 160.836 46.439 C 160.841 46.415 160.741 46.65 159.852 47.237 C 159.64 47.376 159.166 47.592 158.799 47.738 C 158.431 47.886 158.171 47.968 158.387 47.835 C 158.652 47.674 158.848 47.424 158.979 47.182 C 159.112 46.941 159.178 46.709 159.19 46.586 C 159.221 46.285 158.963 45.887 158.7 45.564 C 158.435 45.242 158.164 44.995 158.164 44.995 C 158.164 44.995 158.386 45.147 158.656 45.286 C 158.925 45.426 159.241 45.551 159.424 45.496 C 159.608 45.443 159.812 45.266 159.969 45.103 C 160.127 44.94 160.237 44.791 160.237 44.791 C 160.011 44.604 159.638 44.479 159.229 44.372 C 158.82 44.264 158.378 44.177 158.015 44.061 C 157.644 43.948 157.223 43.87 156.751 43.823 C 156.276 43.779 155.749 43.767 155.172 43.788 C 154.68 43.805 154.21 43.862 153.759 43.957 C 153.308 44.052 152.882 44.186 152.473 44.357 C 152.071 44.529 151.703 44.731 151.368 44.965 C 151.034 45.199 150.734 45.464 150.468 45.76 C 150.199 46.052 149.98 46.368 149.808 46.71 C 149.636 47.051 149.512 47.416 149.435 47.808 C 149.37 48.147 149.358 48.464 149.397 48.755 C 149.436 49.048 149.527 49.318 149.671 49.562 C 149.81 49.808 150.015 50.036 150.282 50.247 C 150.55 50.459 150.881 50.654 151.276 50.831 C 151.668 51.005 152.132 51.17 152.671 51.33 C 153.21 51.488 153.822 51.638 154.51 51.783 C 155.798 52.041 156.91 52.378 157.843 52.794 C 158.777 53.21 159.53 53.706 160.109 54.281 C 160.685 54.859 161.076 55.514 161.278 56.244 C 161.483 56.977 161.498 57.784 161.329 58.668 C 161.206 59.298 160.999 59.898 160.707 60.466 C 160.414 61.032 160.037 61.568 159.575 62.071 C 159.114 62.569 158.584 63.02 157.992 63.419 C 157.398 63.82 156.737 64.17 156.012 64.471 C 155.287 64.772 154.517 65.006 153.702 65.173 C 152.889 65.34 152.03 65.44 151.126 65.473 Z M 153.517 39.476 L 152.118 39.527 L 150.719 39.579 L 150.76 39.366 L 150.8 39.152 L 153.329 37.155 L 155.856 35.159 L 156.905 35.12 L 157.949 35.081 L 159.754 36.931 L 161.557 38.78 L 161.518 38.983 L 161.481 39.183 L 160.067 39.236 L 158.656 39.287 L 157.596 38.133 L 156.536 36.978 L 155.027 38.227 Z M 172.033 64.364 L 167.441 64.533 L 162.85 64.702 L 163.048 63.684 L 163.242 62.665 L 164.713 62.382 L 166.183 62.098 L 166.37 61.134 L 166.556 60.17 L 165.73 58.926 L 164.903 57.681 C 164.903 57.681 165.218 57.982 165.599 58.3 C 165.983 58.616 166.433 58.948 166.709 59.008 C 167.091 59.091 167.174 58.666 167.108 58.13 C 167.044 57.594 166.832 56.947 166.625 56.585 C 166.385 56.163 166.627 55.714 166.928 55.369 C 167.231 55.027 167.594 54.789 167.594 54.789 L 167.758 53.946 L 167.921 53.103 C 167.921 53.103 167.869 52.864 167.776 52.583 C 167.681 52.301 167.542 51.972 167.371 51.793 C 167.028 51.435 166.319 51.708 165.695 52.069 C 165.075 52.43 164.537 52.88 164.537 52.88 C 164.537 52.88 165.08 52.289 165.717 51.672 C 166.356 51.055 167.091 50.413 167.48 50.318 C 167.833 50.229 168.178 49.77 168.433 49.333 C 168.692 48.895 168.859 48.481 168.859 48.481 L 169.476 45.165 L 170.092 41.853 C 170.092 41.853 169.536 42.009 168.915 42.043 C 168.293 42.078 167.601 41.992 167.326 41.508 C 167.15 41.194 167.199 40.511 167.321 39.988 C 167.439 39.467 167.629 39.108 167.725 39.448 C 167.895 40.046 168.585 40.02 169.236 39.847 C 169.883 39.67 170.49 39.346 170.49 39.346 C 170.49 39.346 171.089 38.615 171.641 37.988 C 172.194 37.362 172.696 36.841 172.504 37.259 C 172.155 38.012 172.279 38.566 172.49 38.932 C 172.702 39.299 173 39.476 173 39.476 C 173 39.476 173.865 39.135 174.632 38.854 C 175.401 38.572 176.069 38.35 175.681 38.588 C 174.589 39.255 174.076 39.945 173.837 40.469 C 173.598 40.993 173.63 41.349 173.63 41.349 L 173.445 42.315 L 173.257 43.282 L 171.455 52.627 L 169.651 61.971 L 171.038 62.149 L 172.426 62.328 L 172.229 63.347 Z M 183.63 63.938 L 179.341 64.096 L 175.05 64.254 L 175.247 63.235 L 175.443 62.217 L 176.426 62.075 L 177.41 61.933 L 177.393 61.899 L 177.374 61.864 L 175.256 58.697 L 173.138 55.529 L 174.284 54.224 L 175.427 52.918 L 176.262 54.14 L 177.097 55.364 L 177.63 56.145 L 178.163 56.926 C 178.163 56.926 178.344 57.185 178.6 57.474 C 178.857 57.764 179.192 58.081 179.498 58.194 C 179.739 58.282 180.132 58.275 180.468 58.246 C 180.803 58.216 181.076 58.163 181.076 58.163 C 181.076 58.163 180.837 58.351 180.593 58.602 C 180.35 58.852 180.102 59.167 180.08 59.417 C 180.049 59.824 180.37 60.373 180.697 60.821 C 181.026 61.266 181.361 61.611 181.361 61.611 L 182.69 61.757 L 184.023 61.903 L 183.826 62.92 Z M 182.588 49.046 L 176.245 54.229 L 169.902 59.411 L 169.503 58.179 L 169.104 56.947 L 173.957 53.007 L 178.811 49.067 L 178.866 49.018 L 178.92 48.968 L 177.704 48.932 L 176.488 48.895 C 176.488 48.895 176.276 48.792 176.018 48.636 C 175.758 48.481 175.449 48.27 175.253 48.058 C 175.06 47.844 174.98 47.28 174.948 46.769 C 174.918 46.259 174.935 45.8 174.935 45.8 C 174.935 45.8 175.077 46.217 175.289 46.665 C 175.502 47.114 175.787 47.593 176.075 47.713 C 176.236 47.781 176.668 47.807 177.059 47.817 C 177.453 47.825 177.805 47.817 177.805 47.817 L 179.982 47.281 L 182.159 46.746 L 181.47 46.126 L 180.78 45.505 L 182.103 46.032 L 183.428 46.558 L 184.467 46.521 L 185.504 46.482 L 185.308 47.506 L 185.111 48.531 L 183.85 48.788 Z M 188.37 70.782 C 188.237 70.787 186.017 70.75 183.775 70.706 C 181.53 70.662 179.27 70.613 179.056 70.594 C 178.848 70.57 176.228 70.459 173.629 70.352 C 171.034 70.243 168.462 70.135 168.352 70.115 C 168.352 70.115 166.069 69.547 163.202 69.002 C 160.337 68.458 156.885 67.935 154.552 68.026 C 152.907 68.089 150.527 68.644 148.558 69.183 C 146.588 69.723 145.032 70.245 145.032 70.245 C 145.032 70.245 146.584 69.373 148.419 68.422 C 150.255 67.474 152.37 66.45 153.494 66.148 C 154.685 65.829 155.073 65.701 155.322 65.758 C 155.569 65.815 155.682 66.057 156.321 66.48 C 157.431 67.215 159.544 67.297 161.377 67.196 C 163.213 67.095 164.77 66.809 164.77 66.809 C 164.808 66.811 166.399 67.398 168.433 67.859 C 170.467 68.32 172.943 68.653 174.749 68.146 C 177.163 67.469 179.547 67.022 181.355 66.746 C 183.162 66.47 184.394 66.362 184.498 66.363 C 184.61 66.367 183.161 67.071 182.251 67.77 C 181.343 68.469 180.973 69.161 183.244 69.14 C 184.472 69.129 185.789 68.975 186.806 68.821 C 187.824 68.668 188.54 68.519 188.562 68.518 C 188.93 68.504 189.318 68.325 189.686 68.083 C 190.054 67.84 190.4 67.533 190.681 67.264 C 190.963 66.995 191.246 66.681 191.53 66.319 C 191.816 65.957 192.1 65.551 192.388 65.097 L 192.978 64.159 L 193.566 63.22 C 193.566 63.22 193.599 62.659 193.532 62.006 C 193.463 61.351 193.294 60.603 192.889 60.23 C 192.502 59.873 191.676 59.677 190.948 59.573 C 190.22 59.466 189.588 59.45 189.588 59.45 C 189.588 59.45 189.905 59.439 190.284 59.389 C 190.661 59.339 191.095 59.248 191.328 59.092 C 191.574 58.928 191.846 58.634 192.027 58.352 C 192.21 58.068 192.299 57.797 192.179 57.677 C 191.89 57.388 191.448 57.294 190.984 57.222 C 190.516 57.15 190.029 57.099 189.653 56.893 C 189.199 56.645 188.635 56.155 188.184 55.727 C 187.733 55.299 187.394 54.931 187.394 54.931 C 187.394 54.931 187.833 55.159 188.393 55.376 C 188.955 55.593 189.636 55.8 190.116 55.761 C 190.369 55.74 190.643 55.674 190.881 55.562 C 191.118 55.451 191.315 55.299 191.415 55.101 C 191.599 54.744 191.448 54.176 191.251 53.695 C 191.055 53.216 190.814 52.825 190.814 52.825 L 190.56 51.864 L 190.305 50.901 L 190.23 49.884 L 190.153 48.869 L 189.108 48.912 L 188.064 48.956 C 188.576 48.643 188.46 48.328 188.093 48.171 C 187.724 48.012 187.098 48.011 186.587 48.323 C 186.763 48.138 187.051 47.98 187.312 47.812 C 187.572 47.644 187.803 47.467 187.865 47.247 C 187.965 46.892 187.836 46.757 187.664 46.583 C 187.495 46.411 187.283 46.2 187.22 45.693 C 187.22 45.693 187.566 46.027 188.151 46.148 C 188.738 46.27 189.566 46.178 190.531 45.325 C 190.531 45.325 190.389 45.658 190.313 46.036 C 190.233 46.414 190.219 46.838 190.472 47.02 C 191.201 47.544 192.605 47.313 193.829 46.95 C 195.052 46.588 196.093 46.094 196.093 46.094 L 195.896 47.119 L 195.696 48.142 L 194.509 48.351 L 193.322 48.559 C 193.115 48.735 193.607 50.897 194.159 53.013 C 194.711 55.127 195.321 57.193 195.345 57.171 L 195.574 58.297 L 195.802 59.422 L 195.853 59.421 L 195.905 59.418 C 196.108 59.496 197.879 56.632 199.534 53.722 C 201.189 50.814 202.729 47.861 202.466 47.761 C 202.531 47.679 202.176 47.687 201.614 47.687 C 201.053 47.686 200.284 47.675 199.518 47.558 C 199.563 47.506 200.138 47.213 200.694 46.918 C 201.252 46.624 201.793 46.328 201.773 46.271 C 201.92 46.24 201.792 45.815 201.628 45.376 C 201.462 44.937 201.256 44.489 201.239 44.414 C 201.44 44.478 202.05 44.724 202.71 44.963 C 203.37 45.201 204.079 45.432 204.481 45.46 C 204.727 45.469 205.878 45.328 206.912 45.214 C 207.948 45.099 208.87 45.011 208.656 45.118 C 208.513 45.256 208.147 45.698 207.799 46.141 C 207.451 46.583 207.122 47.027 207.051 47.166 L 207.13 48.14 L 207.208 49.115 C 207.222 49.093 206.859 48.779 206.487 48.486 C 206.112 48.192 205.726 47.921 205.69 47.982 C 205.66 48.083 205.558 48.352 205.332 48.838 C 205.104 49.323 204.752 50.023 204.222 50.985 C 204.165 51.088 204.207 51.345 204.353 51.601 C 204.501 51.858 204.757 52.115 205.128 52.221 C 205.668 52.375 206.367 52.371 206.931 52.329 C 207.495 52.287 207.924 52.206 207.924 52.206 C 207.924 52.206 207.745 52.285 207.447 52.441 C 207.149 52.598 206.733 52.829 206.257 53.134 C 206.078 53.246 205.827 53.342 205.54 53.407 C 205.252 53.473 204.926 53.512 204.596 53.514 C 203.942 53.52 203.443 53.472 203.011 53.502 C 202.578 53.533 202.213 53.64 201.827 53.956 C 201.308 54.381 201.144 55.176 201.099 55.919 C 201.057 56.662 201.137 57.354 201.104 57.573 C 201.079 57.753 201.052 58.547 201.004 59.338 C 200.959 60.128 200.897 60.915 200.8 61.077 C 200.737 61.184 200.739 60.851 200.685 60.455 C 200.63 60.058 200.524 59.598 200.237 59.449 C 200.056 59.354 199.765 59.358 199.508 59.411 C 199.251 59.462 199.028 59.561 198.974 59.649 C 197.715 61.778 196.721 63.427 196.033 64.537 C 195.345 65.647 194.964 66.217 194.929 66.191 C 194.672 66.621 194.402 67.026 194.117 67.411 C 193.834 67.796 193.536 68.16 193.223 68.499 C 192.911 68.839 192.577 69.146 192.221 69.417 C 191.864 69.69 191.485 69.926 191.085 70.129 C 190.689 70.329 190.265 70.481 189.813 70.59 C 189.362 70.699 188.881 70.763 188.37 70.782 Z M 196.251 42.631 C 196.295 42.589 195.692 42.52 195.026 42.51 C 194.363 42.499 193.637 42.546 193.439 42.735 L 193.48 42.521 L 193.52 42.309 C 193.632 42.413 195.143 41.645 196.504 40.736 C 197.865 39.828 199.071 38.776 198.578 38.315 C 198.601 38.44 199.128 38.436 199.645 38.392 C 200.165 38.348 200.677 38.266 200.67 38.237 C 200.075 38.7 200.91 39.677 201.927 40.512 C 202.944 41.347 204.145 42.041 204.278 41.937 L 204.24 42.138 L 204.2 42.34 C 204.25 42.27 203.57 42.261 202.861 42.288 C 202.156 42.313 201.423 42.374 201.375 42.445 C 201.782 42.288 201.394 41.587 200.841 40.947 C 200.289 40.307 199.574 39.729 199.331 39.821 C 199.046 39.63 198.191 40.277 197.45 40.999 C 196.709 41.721 196.081 42.519 196.251 42.631 Z" style="white-space: pre; fill: url(#gradient-0);"/>
</svg>