<?xml version="1.0" encoding="utf-8"?>
<svg viewBox="0 0 150 150" xmlns="http://www.w3.org/2000/svg" xmlns:bx="https://boxy-svg.com">
  <defs>
    <filter id="drop-shadow-filter-1" x="-500%" y="-500%" width="1000%" height="1000%" bx:preset="drop-shadow 1 10 10 6 0.64 rgba(0,0,0,0.3)">
      <feGaussianBlur in="SourceAlpha" stdDeviation="6"/>
      <feOffset dx="10" dy="10"/>
      <feComponentTransfer result="offsetblur">
        <feFuncA id="spread-ctrl" type="linear" slope="1.28"/>
      </feComponentTransfer>
      <feFlood flood-color="rgba(0,0,0,0.3)"/>
      <feComposite in2="offsetblur" operator="in"/>
      <feMerge>
        <feMergeNode/>
        <feMergeNode in="SourceGraphic"/>
      </feMerge>
    </filter>
  </defs>
  <g style="filter: url(#drop-shadow-filter-1);" transform="matrix(0.935799, 0, 0, 0.838908, -113.184082, -115.757607)">
    <path d="M 208.183 297.188 L 147.895 300.518 C 150.62 300.766 151.547 293.175 144.483 288.411 C 138.495 284.371 124.651 283.055 123.278 282.931 C 123.278 282.931 137.002 277.054 144.342 277.028 C 152.509 277.002 167.84 283.44 167.84 283.44 L 167.84 181.269 C 167.847 181.243 159.127 168.667 154.045 172.798 C 148.51 177.301 133.428 177.829 133.428 177.829 C 133.428 177.829 148.949 170.335 147.159 166.354 C 144.271 159.923 136.089 150.768 136.089 150.768 C 136.089 150.768 157.577 168.224 170.982 171.084 C 182.809 173.606 183.354 153.413 174.288 147.868 C 163.65 141.359 185.782 149.647 199.612 157.811 C 207.362 162.386 216.917 156.508 218.035 157.16 C 225.24 161.356 228.262 175.698 239.75 176.63 C 245.447 177.092 245.914 160.887 246.742 167.494 C 247.705 175.177 261.408 198.211 261.408 198.211 C 263.092 201.338 264.501 204.609 265.633 208.03 C 267.962 215.061 269.122 222.711 269.122 230.986 L 269.122 233.788 C 269.122 245.777 266.645 256.574 261.691 266.172 C 256.687 275.731 249.637 283.29 240.528 288.848 C 231.419 294.406 220.64 297.188 208.183 297.188 Z M 186.879 181.269 L 186.879 283.44 L 207.192 283.44 C 212.281 283.44 217.179 284.671 220.045 281.25 C 222.197 278.676 216.096 271.105 218.835 273.021 C 221.744 275.06 229.084 277.021 231.716 276.037 C 234.498 274.995 236.515 263.488 231.547 261.396 C 226.146 259.115 245.454 263.266 247.507 262.256 C 253.827 259.148 250.841 250.677 244.683 248.338 C 242.184 247.387 251.053 247.615 252.405 245.23 C 253.863 242.65 250.083 235.945 250.083 233.788 L 250.083 230.79 C 250.083 221.362 248.363 212.917 244.916 205.443 C 241.427 198.015 236.494 192.131 230.124 187.785 C 223.754 183.439 216.11 181.269 207.192 181.269 L 186.879 181.269 Z M 210.519 245.484 C 210.519 245.484 204.177 240.056 200.178 238.909 C 184.862 234.531 152.056 239.001 152.056 239.001 L 152.056 225.187 C 152.056 225.187 189.023 229.735 206.746 225.799 C 210.03 225.069 215.714 221.44 215.714 221.44 C 214.029 222.365 207.624 228.94 206.824 233.84 C 206.173 237.841 210.519 245.484 210.519 245.484 Z" style="fill: rgb(51, 51, 51); white-space: pre; filter: none; mix-blend-mode: soft-light;"/>
  </g>
</svg>