<?xml version="1.0" encoding="utf-8"?>
<svg viewBox="0 0 250 100" xmlns="http://www.w3.org/2000/svg">
  <defs>
    <linearGradient gradientUnits="userSpaceOnUse" x1="258.92" y1="99.623" x2="258.92" y2="161.668" id="gradient-0" gradientTransform="matrix(1.092384, 0, 0, 1.160972, -159.058753, -101.549678)">
      <stop offset="0" style="stop-color: rgba(85, 1, 163, 1)"/>
      <stop offset="1" style="stop-color: rgba(32, 0, 62, 1)"/>
    </linearGradient>
  </defs>
  <path d="M 33.297 77.274 L 17.646 78.415 L 1.995 79.555 C 6.508 77.996 8.539 76.187 9.945 74.966 C 11.351 73.743 12.13 73.107 14.14 73.893 L 18.507 73.453 L 22.875 73.013 L 25.606 55.275 L 28.337 37.535 L 25.257 36.729 L 22.179 35.922 C 21.433 35.977 19.402 34.347 17.615 32.694 C 15.828 31.04 14.283 29.364 14.513 29.328 L 21.568 30.965 L 28.625 32.603 L 34.292 32.421 L 39.96 32.239 C 40.353 32.298 41.105 32.019 42.043 31.659 C 42.982 31.301 44.109 30.861 45.256 30.598 C 46.574 30.296 47.958 30.14 49.037 30.054 C 50.116 29.969 50.889 29.956 50.986 29.944 C 51.112 29.928 50.778 30.09 50.298 30.364 C 49.82 30.638 49.196 31.025 48.746 31.464 C 48.17 32.023 47.811 32.795 47.747 33.441 C 47.684 34.089 47.917 34.612 48.525 34.673 C 48.823 34.703 49.879 34.859 50.792 35.035 C 51.705 35.212 52.475 35.41 52.203 35.526 C 51.997 35.615 51.478 35.949 51.081 36.329 C 50.686 36.708 50.413 37.133 50.697 37.403 C 51.279 37.955 51.79 38.658 52.226 39.474 C 52.663 40.29 53.026 41.22 53.312 42.228 C 53.769 43.854 54.027 45.607 54.092 47.487 C 54.155 49.366 54.023 51.373 53.695 53.508 L 53.62 53.994 L 53.545 54.482 C 53.223 56.563 52.747 58.55 52.116 60.44 C 51.484 62.33 50.699 64.124 49.757 65.821 C 48.81 67.512 47.747 69.037 46.57 70.395 C 45.392 71.752 44.1 72.943 42.692 73.965 C 41.283 74.988 39.796 75.776 38.229 76.328 C 36.664 76.879 35.02 77.194 33.297 77.274 Z M 33.602 37.292 L 30.871 55.032 L 28.14 72.772 C 28.14 72.772 28.419 72.855 28.764 72.967 C 29.109 73.078 29.521 73.219 29.79 73.33 C 30.171 73.489 30.798 73.051 31.331 72.575 C 31.864 72.099 32.301 71.583 32.301 71.583 C 31.681 72.903 32.021 73.387 32.646 73.462 C 33.271 73.537 34.181 73.202 34.698 72.881 C 35.012 72.686 35.341 72.274 35.646 71.823 C 35.951 71.373 36.231 70.885 36.45 70.539 C 36.701 70.141 37.135 69.125 37.491 68.284 C 37.847 67.444 38.126 66.779 38.068 67.079 C 37.924 67.835 38.41 68.836 39.061 69.544 C 39.712 70.253 40.529 70.671 41.044 70.26 C 41.574 69.84 42.077 69.27 42.496 68.613 C 42.915 67.957 43.251 67.214 43.449 66.447 C 43.629 65.751 43.416 64.101 43.225 62.788 C 43.035 61.475 42.867 60.498 43.136 61.147 C 43.595 62.251 44.064 62.776 44.538 63.032 C 45.011 63.289 45.488 63.278 45.965 63.311 C 46.262 63.332 46.889 63.252 47.426 62.853 C 47.964 62.456 48.413 61.74 48.352 60.486 C 48.259 58.49 47.935 57.515 47.343 57.038 C 46.751 56.562 45.891 56.585 44.725 56.585 C 44.865 56.685 45.833 55.709 46.832 54.518 C 47.83 53.328 48.858 51.921 49.117 51.158 C 49.709 49.413 49.569 46.127 49.082 43.704 C 48.595 41.281 47.76 39.721 46.965 41.423 C 46.523 42.372 45.596 43.209 44.961 43.657 C 44.326 44.106 43.983 44.166 44.708 43.56 C 45.297 43.069 45.721 42.208 45.849 41.331 C 45.978 40.454 45.811 39.561 45.216 39.005 C 44.452 38.291 43.57 37.769 42.571 37.441 C 41.571 37.114 40.455 36.978 39.22 37.035 L 36.412 37.163 Z M 37.015 57.04 C 37.015 56.674 32.277 56.465 27.538 56.502 C 22.801 56.54 18.062 56.824 18.062 57.442 C 18.534 57.415 18.215 55.185 17.38 52.54 C 16.546 49.896 15.196 46.837 13.606 45.149 C 14.438 45.305 19.13 47.31 23.669 49.17 C 28.208 51.029 32.595 52.743 32.816 52.312 L 34.915 54.677 Z M 66.963 76.375 C 65.626 76.437 64.403 76.317 63.292 76.017 C 62.182 75.716 61.185 75.234 60.301 74.571 C 59.427 73.907 58.683 73.102 58.07 72.156 C 57.458 71.211 56.977 70.126 56.627 68.899 C 56.28 67.664 56.082 66.325 56.035 64.882 C 55.988 63.439 56.092 61.891 56.347 60.24 L 56.451 59.561 L 56.555 58.881 C 56.8 57.29 57.173 55.777 57.677 54.342 C 58.18 52.909 58.812 51.551 59.572 50.273 C 60.333 48.995 61.166 47.844 62.072 46.822 C 62.977 45.8 63.956 44.905 65.008 44.137 C 66.06 43.362 67.206 42.897 68.361 42.557 C 69.515 42.216 70.679 41.999 71.763 41.718 C 72.528 41.521 73.883 41.162 75.139 40.824 C 76.395 40.487 77.554 40.173 77.926 40.061 C 78.062 40.021 77.704 40.246 77.281 40.552 C 76.858 40.86 76.371 41.249 76.249 41.538 C 76.153 41.766 76.178 42.04 76.308 42.293 C 76.438 42.546 76.674 42.778 77 42.925 C 77.207 43.017 77.303 42.665 77.363 42.307 C 77.424 41.947 77.45 41.58 77.515 41.644 C 77.773 41.892 78.031 42.656 78.335 43.402 C 78.64 44.148 78.991 44.875 79.431 45.05 C 79.673 45.146 79.942 44.807 80.157 44.498 C 80.372 44.188 80.535 43.909 80.564 44.121 C 80.594 44.349 80.57 44.897 80.543 45.474 C 80.516 46.051 80.485 46.656 80.505 46.999 C 80.517 47.209 80.454 47.454 80.448 47.722 C 80.442 47.992 80.494 48.284 80.733 48.594 C 80.997 48.936 81.448 49.289 81.808 49.556 C 82.167 49.823 82.434 50.004 82.328 50.001 C 81.261 49.975 81.063 50.74 81.073 51.889 C 81.084 53.039 81.303 54.575 81.069 56.091 L 80.777 57.991 L 80.485 59.892 L 79.908 60.223 L 79.331 60.555 C 79.319 59.917 78.934 59.459 78.388 59.344 C 77.841 59.228 77.135 59.455 76.48 60.189 L 75.89 61.016 L 75.301 61.842 L 74.695 60.881 L 74.091 59.92 C 74.091 59.92 73.909 59.758 73.67 59.593 C 73.43 59.429 73.134 59.26 72.908 59.249 C 72.731 59.239 72.404 59.469 72.119 59.7 C 71.835 59.932 71.595 60.167 71.595 60.167 L 71 60.855 L 70.406 61.544 C 70.48 61.496 70.177 61.102 69.824 60.732 C 69.472 60.364 69.068 60.023 68.943 60.086 C 68.943 60.086 68.782 59.891 68.57 59.711 C 68.36 59.531 68.096 59.365 67.893 59.423 C 67.702 59.476 67.503 59.711 67.352 59.931 C 67.202 60.152 67.099 60.36 67.099 60.36 C 67.029 59.773 66.374 59.793 65.755 59.982 C 65.137 60.17 64.555 60.529 64.628 60.622 L 63.16 60.689 L 61.692 60.758 L 61.64 60.839 L 61.588 60.92 C 61.443 61.99 61.378 62.996 61.396 63.939 C 61.412 64.882 61.51 65.76 61.688 66.575 C 61.779 66.985 61.843 67.736 61.961 68.423 C 62.079 69.108 62.251 69.725 62.556 69.869 C 62.858 70.011 64.132 68.745 65.251 67.588 C 66.368 66.429 67.33 65.379 67.006 65.947 C 66.857 66.209 66.153 67.107 65.534 68.029 C 64.914 68.952 64.381 69.898 64.572 70.258 C 64.822 70.725 65.376 71.071 65.98 71.295 C 66.585 71.52 67.242 71.622 67.699 71.601 C 68.593 71.56 69.443 71.448 70.249 71.265 C 71.056 71.082 71.817 70.828 72.534 70.503 C 73.251 70.177 73.933 69.8 74.58 69.369 C 75.226 68.938 75.837 68.455 76.41 67.92 L 77.134 69.852 L 77.857 71.785 C 77.254 72.382 76.572 72.94 75.812 73.458 C 75.051 73.977 74.214 74.455 73.296 74.894 C 72.379 75.332 71.393 75.674 70.338 75.921 C 69.283 76.169 68.157 76.321 66.963 76.375 Z M 62.562 55.842 L 62.57 55.921 L 62.579 55.999 L 69.264 55.69 L 75.95 55.383 L 76.013 54.975 L 76.075 54.569 C 76.198 53.769 76.254 53.012 76.241 52.297 C 76.228 51.583 76.147 50.91 75.997 50.28 C 75.847 49.658 75.627 49.106 75.338 48.625 C 75.049 48.144 74.691 47.733 74.263 47.394 C 73.831 47.047 73.324 46.795 72.743 46.639 C 72.161 46.483 71.504 46.422 70.774 46.456 C 70.186 46.483 69.61 46.608 69.044 46.832 C 68.479 47.056 67.924 47.379 67.379 47.801 C 66.835 48.223 66.322 48.713 65.84 49.271 C 65.36 49.828 64.91 50.454 64.491 51.147 C 64.081 51.839 63.715 52.578 63.392 53.36 C 63.071 54.143 62.794 54.969 62.562 55.842 Z M 71.99 27.573 L 73.8 31.669 L 75.609 35.763 L 75.492 35.769 L 75.374 35.774 L 73.523 35.858 L 71.672 35.944 C 71.672 35.944 71.862 35.545 72.007 35.002 C 72.152 34.458 72.253 33.77 72.073 33.192 C 71.92 32.701 71.352 32.416 70.869 32.15 C 70.386 31.884 69.989 31.638 70.179 31.222 C 70.373 30.8 69.678 30.527 68.935 30.36 C 68.192 30.193 67.4 30.131 67.4 30.131 C 67.4 30.131 67.671 29.884 67.926 29.56 C 68.179 29.236 68.415 28.836 68.345 28.529 C 68.191 27.85 67.343 27.315 66.533 26.949 C 65.725 26.583 64.953 26.388 64.953 26.388 L 68.472 26.981 Z M 96.378 75.022 C 95.041 75.083 93.816 74.964 92.707 74.663 C 91.596 74.361 90.6 73.879 89.718 73.216 C 88.842 72.552 88.097 71.748 87.484 70.803 C 86.872 69.858 86.391 68.772 86.042 67.544 C 85.695 66.31 85.498 64.971 85.451 63.527 C 85.404 62.084 85.509 60.536 85.763 58.885 L 85.867 58.206 L 85.972 57.527 C 86.217 55.935 86.59 54.424 87.093 52.989 C 87.596 51.555 88.228 50.198 88.988 48.918 C 89.748 47.639 90.142 47.061 90.618 46.526 C 91.094 45.989 91.651 45.496 92.74 44.387 C 93.243 43.875 93.93 43.37 94.62 42.937 C 95.31 42.505 96.001 42.146 96.514 41.929 C 96.728 41.837 97.275 41.743 97.769 41.673 C 98.262 41.602 98.703 41.553 98.703 41.553 C 98.917 41.667 99.029 41.361 99.058 40.992 C 99.086 40.624 99.03 40.194 98.909 40.057 C 98.77 39.901 99.403 40.24 100.142 40.601 C 100.882 40.961 101.73 41.344 102.022 41.274 C 102.275 41.215 102.492 41.09 102.632 40.879 C 102.772 40.667 102.835 40.37 102.781 39.966 C 102.749 39.74 103.106 40.113 103.518 40.563 C 103.93 41.011 104.396 41.533 104.585 41.604 C 104.886 41.717 105.143 41.654 105.377 41.519 C 105.611 41.385 105.822 41.178 106.029 41.002 C 106.247 40.817 106.288 40.376 106.274 39.98 C 106.26 39.584 106.192 39.235 106.192 39.235 C 106.192 39.235 105.858 38.633 105.574 38.081 C 105.289 37.527 105.052 37.023 105.247 37.216 C 105.989 37.949 107.224 39.82 108.328 41.778 C 109.431 43.737 110.402 45.784 110.614 46.87 C 110.826 47.958 110.91 49.167 110.883 50.482 C 110.855 51.797 110.717 53.221 110.484 54.736 C 110.484 54.736 110.57 55.827 110.528 56.838 C 110.484 57.851 110.313 58.783 109.798 58.466 C 109.194 58.095 108.828 58.458 108.428 58.829 C 108.028 59.201 107.595 59.582 106.855 59.243 C 106.116 58.905 105.492 59.065 105.053 59.31 C 104.614 59.556 104.359 59.886 104.359 59.886 L 103.288 59.722 L 102.219 59.557 L 101.571 60.97 L 100.923 62.382 C 100.923 62.382 100.849 61.905 100.697 61.351 C 100.546 60.797 100.316 60.168 100.004 59.864 C 99.94 59.802 99.699 59.744 99.408 59.757 C 99.118 59.77 98.778 59.855 98.521 60.079 C 98.313 60.261 98.246 60.672 98.211 60.987 C 98.176 61.302 98.173 61.523 98.093 61.322 C 97.829 60.664 97.946 59.996 98.128 59.492 C 98.312 58.989 98.561 58.65 98.561 58.65 C 98.561 58.65 97.93 58.849 97.222 59.106 C 96.515 59.361 95.729 59.674 95.419 59.899 C 94.975 60.219 94.449 60.865 94.033 61.43 C 93.617 61.995 93.312 62.481 93.312 62.481 L 93.417 60.887 L 93.521 59.292 L 92.313 59.347 L 91.105 59.403 L 91.053 59.484 L 91.001 59.566 C 90.856 60.635 90.793 61.641 90.809 62.584 C 90.825 63.528 90.924 64.407 91.103 65.222 C 91.281 66.037 91.543 66.761 91.886 67.393 C 92.23 68.026 92.656 68.565 93.164 69.014 C 93.671 69.463 94.254 69.789 94.912 69.995 C 95.57 70.201 96.304 70.285 97.113 70.248 C 97.663 70.222 98.159 70.187 98.629 70.1 C 99.1 70.014 99.547 69.877 99.998 69.647 C 100.28 69.505 100.743 68.965 101.127 68.539 C 101.509 68.114 101.81 67.804 101.77 68.12 C 101.67 68.89 102.257 69.083 102.96 69.02 C 103.661 68.958 104.478 68.64 104.835 68.391 C 105.115 68.196 105.236 67.857 105.351 67.509 C 105.465 67.161 105.572 66.802 105.825 66.566 C 105.825 66.566 106.281 66.635 106.853 66.621 C 107.424 66.608 108.112 66.515 108.578 66.191 C 108.938 65.94 109.49 65.172 109.951 64.467 C 110.412 63.762 110.782 63.12 110.782 63.12 C 110.782 63.12 110.817 63.919 110.732 64.838 C 110.647 65.756 110.441 66.794 109.961 67.271 C 109.479 67.748 108.807 68.538 108.256 69.209 C 107.704 69.878 107.272 70.43 107.272 70.43 C 106.667 71.028 105.986 71.585 105.225 72.104 C 104.464 72.622 103.626 73.101 102.71 73.54 C 101.795 73.978 100.81 74.32 99.754 74.568 C 98.698 74.815 97.572 74.967 96.378 75.022 Z M 91.979 54.487 L 91.987 54.566 L 91.994 54.644 L 98.68 54.337 L 105.364 54.029 L 105.426 53.621 L 105.49 53.214 C 105.613 52.414 105.668 51.657 105.656 50.943 C 105.643 50.229 105.561 49.557 105.412 48.926 C 105.262 48.304 105.043 47.753 104.753 47.271 C 104.464 46.79 104.106 46.379 103.68 46.039 C 103.246 45.693 102.739 45.441 102.158 45.286 C 101.577 45.13 100.92 45.068 100.188 45.102 C 99.601 45.129 99.024 45.254 98.458 45.478 C 97.892 45.702 97.337 46.024 96.794 46.447 C 96.249 46.869 95.737 47.359 95.255 47.916 C 94.774 48.474 94.324 49.099 93.907 49.792 C 93.496 50.486 93.13 51.224 92.808 52.006 C 92.487 52.789 92.211 53.616 91.979 54.487 Z M 97.9 34.468 L 95.755 34.566 L 93.611 34.665 L 93.674 34.258 L 93.737 33.85 L 97.591 30.034 L 101.445 26.217 L 103.039 26.143 L 104.634 26.069 L 107.386 29.604 L 110.137 33.139 L 110.077 33.525 L 110.016 33.909 L 107.864 34.009 L 105.711 34.108 L 104.097 31.902 L 102.482 29.696 L 100.192 32.082 Z M 122.824 85.936 L 114.714 86.039 L 106.604 86.143 C 106.604 86.143 107.106 85.997 107.663 85.776 C 108.222 85.554 108.833 85.254 109.055 84.947 C 109.233 84.699 109.542 84.391 109.807 84.143 C 110.072 83.896 110.292 83.71 110.292 83.71 C 110.292 83.71 110.221 83.381 110.125 82.99 C 110.03 82.599 109.911 82.148 109.815 81.903 C 109.574 81.28 109.026 80.456 108.537 79.787 C 108.05 79.119 107.622 78.605 107.622 78.605 L 109.383 79.663 L 111.144 80.721 L 112.41 81.157 L 113.675 81.594 L 116.504 63.22 L 119.332 44.847 L 118.337 43.248 L 117.341 41.648 L 116.084 38.759 L 114.825 35.868 L 117.094 37.507 L 119.362 39.146 L 121.802 39.565 L 124.242 39.983 L 124.349 41.94 L 124.455 43.895 C 125.055 43.111 125.693 42.415 126.371 41.806 C 127.047 41.198 127.762 40.678 128.515 40.246 C 129.27 39.807 130.062 39.468 130.893 39.228 C 131.723 38.987 132.593 38.847 133.501 38.805 C 134.696 38.75 135.774 38.885 136.738 39.211 C 137.702 39.538 138.551 40.054 139.284 40.762 C 140.014 41.478 140.625 42.344 141.113 43.362 C 141.602 44.38 141.968 45.549 142.21 46.873 C 142.447 48.194 142.555 49.638 142.535 51.205 C 142.515 52.772 142.365 54.46 142.086 56.27 L 142.038 56.586 L 141.988 56.903 C 141.74 58.517 141.395 60.035 140.953 61.454 C 140.51 62.875 139.972 64.2 139.335 65.427 C 138.699 66.654 137.986 67.753 137.195 68.722 C 136.404 69.69 135.537 70.53 134.591 71.24 C 133.65 71.957 132.65 72.508 131.589 72.894 C 130.528 73.28 129.407 73.501 128.228 73.555 C 127.34 73.596 126.517 73.547 125.761 73.41 C 125.005 73.273 124.316 73.046 123.69 72.73 C 123.072 72.413 122.517 72.012 122.024 71.526 C 121.532 71.038 121.104 70.467 120.738 69.81 L 119.85 75.58 L 118.961 81.35 L 122.317 82.354 L 125.671 83.36 L 124.248 84.647 Z M 127.337 68.856 C 128.156 68.818 128.834 68.886 129.413 68.807 C 129.993 68.729 130.474 68.503 130.896 67.879 C 131.118 67.553 131.455 65.571 131.806 63.579 C 132.158 61.586 132.524 59.583 132.801 59.213 C 132.93 59.038 132.863 59.754 132.799 60.72 C 132.737 61.684 132.679 62.9 132.828 63.722 C 132.947 64.377 133.27 64.656 133.6 64.759 C 133.931 64.861 134.27 64.785 134.42 64.731 C 134.989 64.525 135.442 63.992 135.798 63.325 C 136.154 62.657 136.414 61.855 136.6 61.108 C 136.653 60.894 136.743 60.551 136.839 60.146 C 136.935 59.74 137.037 59.271 137.113 58.798 C 137.194 58.306 137.175 57.743 137.137 57.304 C 137.099 56.864 137.041 56.548 137.041 56.548 L 136.265 56.039 L 135.49 55.528 L 134.288 53.894 L 133.085 52.26 C 133.455 52.338 134.196 52.756 134.946 53.105 C 135.694 53.454 136.451 53.735 136.851 53.541 C 137.277 53.335 137.506 52.426 137.612 51.445 C 137.718 50.464 137.7 49.411 137.629 48.915 C 137.555 48.374 137.327 47.806 137.044 47.318 C 136.762 46.831 136.424 46.424 136.129 46.203 C 135.844 45.989 135.697 45.773 135.275 45.921 C 134.852 46.068 134.153 46.579 132.763 47.819 C 132.511 48.045 132.792 47.383 133.113 46.559 C 133.435 45.735 133.799 44.748 133.711 44.327 C 133.615 43.862 133.193 43.729 132.683 43.716 C 132.173 43.703 131.577 43.812 131.132 43.833 C 130.382 43.868 129.67 43.997 128.997 44.223 C 128.323 44.449 127.689 44.77 127.094 45.187 C 126.498 45.604 125.945 46.09 125.431 46.645 C 124.918 47.201 124.446 47.826 124.015 48.519 L 122.76 56.676 L 121.505 64.832 C 121.725 65.504 122.009 66.096 122.357 66.608 C 122.706 67.12 123.119 67.553 123.596 67.905 C 124.067 68.258 124.613 68.513 125.237 68.671 C 125.859 68.83 126.56 68.892 127.337 68.856 Z M 157.816 72.192 C 156.63 72.247 155.48 72.199 154.369 72.047 C 153.26 71.896 152.187 71.643 151.152 71.287 C 150.11 70.938 148.464 69.436 147.079 68.021 C 145.693 66.607 144.567 65.279 144.567 65.279 C 144.567 65.279 145.102 65.44 145.662 65.505 C 146.221 65.57 146.806 65.538 146.907 65.15 C 147.034 64.66 146.668 64.266 146.289 63.957 C 145.91 63.649 145.517 63.425 145.589 63.273 C 145.861 62.704 145.861 62.178 145.792 61.796 C 145.724 61.413 145.588 61.172 145.588 61.172 C 145.588 61.172 145.333 60.743 144.926 60.293 C 144.518 59.845 143.956 59.379 143.341 59.304 C 142.264 59.175 143.136 59.16 144.279 59.178 C 145.422 59.195 146.833 59.245 146.833 59.245 C 146.833 59.245 146.439 58.697 145.899 58.099 C 145.358 57.501 144.673 56.855 144.091 56.657 C 143.05 56.307 143.89 56.388 144.99 56.556 C 146.09 56.725 147.45 56.98 147.45 56.98 C 147.45 56.98 147.384 56.326 147.231 55.546 C 147.078 54.766 146.839 53.858 146.491 53.35 C 145.874 52.445 147.47 53.518 148.965 54.865 C 150.462 56.211 151.858 57.832 150.843 58.021 C 148.901 58.384 148.891 60.153 149.366 61.833 C 149.842 63.512 150.803 65.101 150.803 65.101 C 151.313 65.49 151.857 65.831 152.435 66.123 C 153.012 66.414 153.621 66.657 154.265 66.853 C 154.908 67.048 155.589 67.185 156.305 67.264 C 157.022 67.343 157.776 67.365 158.566 67.329 C 159.453 67.288 160.287 67.171 161.065 66.977 C 161.842 66.784 162.566 66.515 163.234 66.17 C 163.902 65.832 164.507 65.435 165.051 64.979 C 165.594 64.523 166.074 64.007 166.494 63.435 C 166.905 62.863 167.243 62.247 167.506 61.591 C 167.77 60.935 167.959 60.238 168.072 59.498 C 168.178 58.805 168.209 58.156 168.163 57.551 C 168.116 56.948 167.994 56.388 167.795 55.872 C 167.587 55.365 167.283 54.893 166.879 54.454 C 166.477 54.015 165.978 53.611 165.382 53.242 C 164.789 52.874 164.073 52.536 163.232 52.231 C 162.392 51.925 161.426 51.651 160.336 51.409 C 159.054 51.108 157.886 50.742 156.832 50.31 C 155.776 49.88 154.836 49.384 154.009 48.822 C 153.174 48.262 152.464 47.633 151.876 46.933 C 151.287 46.234 150.82 45.466 150.476 44.627 C 150.132 43.782 149.918 42.871 149.832 41.893 C 149.745 40.917 149.788 39.874 149.96 38.766 C 150.14 37.589 150.447 36.468 150.88 35.403 C 151.313 34.339 151.871 33.33 152.556 32.377 C 153.234 31.425 154.005 30.566 154.868 29.799 C 155.731 29.033 156.685 28.361 157.735 27.782 C 158.783 27.202 159.89 26.753 161.058 26.434 C 162.225 26.113 163.452 25.924 164.736 25.865 C 165.086 25.849 165.587 25.897 166.179 25.895 C 166.77 25.894 167.452 25.843 168.163 25.628 C 168.574 25.504 169.308 25.151 169.903 24.857 C 170.5 24.563 170.957 24.331 170.815 24.447 C 170.382 24.801 169.932 25.188 169.626 25.522 C 169.321 25.856 169.16 26.137 169.308 26.279 C 169.568 26.532 170.462 26.32 171.216 26.116 C 171.971 25.911 172.585 25.715 172.288 26 C 171.848 26.42 171.827 26.73 171.971 26.975 C 172.115 27.22 172.425 27.398 172.646 27.554 C 173.279 28.001 174.11 28.356 174.871 28.822 C 175.633 29.289 176.323 29.867 176.674 30.758 C 176.674 30.758 176.32 30.502 175.864 30.242 C 175.408 29.983 174.851 29.722 174.445 29.713 C 174.155 29.708 173.751 29.878 173.418 30.05 C 173.086 30.222 172.826 30.395 172.826 30.395 L 173.256 31.561 L 173.686 32.726 L 174.446 35.539 L 175.208 38.352 L 173.531 38.407 L 171.854 38.461 C 171.854 38.461 172.278 38.281 172.653 38.041 C 173.027 37.802 173.352 37.502 173.155 37.264 C 172.443 36.406 172.611 35.864 172.619 35.818 C 172.626 35.773 172.472 36.221 171.117 37.342 C 170.796 37.607 170.074 38.019 169.513 38.301 C 168.953 38.584 168.555 38.738 168.885 38.486 C 169.289 38.178 169.587 37.699 169.787 37.237 C 169.988 36.776 170.092 36.332 170.111 36.098 C 170.157 35.522 169.764 34.761 169.361 34.145 C 168.958 33.53 168.543 33.057 168.543 33.057 C 168.543 33.057 168.884 33.348 169.295 33.614 C 169.705 33.88 170.186 34.121 170.467 34.016 C 170.748 33.913 171.058 33.576 171.297 33.265 C 171.537 32.954 171.707 32.668 171.707 32.668 C 171.36 32.311 170.79 32.071 170.169 31.867 C 169.547 31.662 168.872 31.492 168.317 31.27 C 167.753 31.057 167.111 30.907 166.389 30.82 C 165.666 30.734 164.864 30.711 163.984 30.75 C 163.233 30.785 162.515 30.893 161.829 31.074 C 161.143 31.255 160.49 31.511 159.87 31.838 C 159.256 32.167 158.694 32.554 158.185 33 C 157.675 33.447 157.218 33.953 156.813 34.519 C 156.403 35.077 156.068 35.682 155.806 36.334 C 155.543 36.987 155.354 37.686 155.238 38.432 C 155.138 39.081 155.119 39.685 155.179 40.243 C 155.239 40.803 155.378 41.317 155.597 41.786 C 155.809 42.255 156.121 42.692 156.529 43.096 C 156.937 43.5 157.442 43.872 158.044 44.212 C 158.641 44.544 159.35 44.861 160.171 45.164 C 160.993 45.467 161.927 45.755 162.974 46.03 C 164.938 46.523 166.633 47.168 168.055 47.963 C 169.478 48.758 170.63 49.705 171.51 50.803 C 172.389 51.908 172.984 53.159 173.294 54.557 C 173.604 55.955 173.628 57.499 173.368 59.187 C 173.182 60.394 172.867 61.539 172.421 62.624 C 171.975 63.707 171.4 64.73 170.695 65.691 C 169.992 66.644 169.187 67.503 168.282 68.267 C 167.376 69.032 166.37 69.702 165.265 70.278 C 164.158 70.853 162.985 71.299 161.744 71.619 C 160.503 71.938 159.193 72.13 157.816 72.192 Z M 161.461 22.511 L 159.328 22.609 L 157.194 22.707 L 157.258 22.299 L 157.32 21.891 L 161.174 18.075 L 165.027 14.257 L 166.623 14.184 L 168.218 14.11 L 170.968 17.646 L 173.718 21.181 L 173.659 21.567 L 173.6 21.951 L 171.448 22.051 L 169.295 22.15 L 167.679 19.943 L 166.063 17.736 L 163.763 20.124 Z M 189.688 70.073 L 182.69 70.396 L 175.691 70.718 L 175.99 68.773 L 176.288 66.827 L 178.53 66.286 L 180.771 65.744 L 181.055 63.902 L 181.338 62.059 L 180.08 59.68 L 178.82 57.302 C 178.82 57.302 179.298 57.879 179.881 58.484 C 180.463 59.088 181.151 59.722 181.572 59.837 C 182.154 59.996 182.281 59.185 182.182 58.161 C 182.083 57.137 181.76 55.9 181.443 55.205 C 181.077 54.399 181.446 53.541 181.907 52.885 C 182.369 52.229 182.922 51.774 182.922 51.774 L 183.17 50.163 L 183.418 48.551 C 183.418 48.551 183.341 48.097 183.197 47.558 C 183.053 47.018 182.844 46.393 182.58 46.05 C 182.056 45.367 180.977 45.887 180.028 46.578 C 179.08 47.267 178.263 48.129 178.263 48.129 C 178.263 48.129 179.088 46.996 180.06 45.817 C 181.033 44.638 182.154 43.413 182.746 43.228 C 183.285 43.061 183.81 42.183 184.202 41.348 C 184.595 40.512 184.851 39.718 184.851 39.718 L 185.79 33.384 L 186.728 27.051 C 186.728 27.051 185.884 27.35 184.935 27.416 C 183.986 27.483 182.933 27.318 182.514 26.394 C 182.243 25.794 182.321 24.487 182.505 23.489 C 182.687 22.493 182.976 21.808 183.121 22.455 C 183.38 23.601 184.433 23.552 185.422 23.218 C 186.41 22.882 187.334 22.261 187.334 22.261 C 187.334 22.261 188.25 20.865 189.091 19.668 C 189.933 18.471 190.701 17.473 190.405 18.272 C 189.873 19.712 190.063 20.772 190.385 21.471 C 190.709 22.171 191.164 22.51 191.164 22.51 C 191.164 22.51 192.482 21.858 193.65 21.321 C 194.82 20.783 195.842 20.36 195.249 20.813 C 193.585 22.087 192.804 23.407 192.439 24.408 C 192.074 25.407 192.126 26.09 192.126 26.09 L 191.842 27.937 L 191.556 29.784 L 188.807 47.642 L 186.057 65.5 L 188.172 65.842 L 190.286 66.183 L 189.988 68.128 Z M 207.368 69.26 L 200.829 69.56 L 194.288 69.861 L 194.588 67.915 L 194.887 65.971 L 196.387 65.699 L 197.887 65.427 L 197.859 65.361 L 197.831 65.295 L 194.603 59.243 L 191.374 53.191 L 193.12 50.696 L 194.864 48.2 L 196.137 50.537 L 197.408 52.873 L 198.221 54.366 L 199.034 55.857 C 199.034 55.857 199.309 56.355 199.7 56.907 C 200.092 57.46 200.601 58.066 201.068 58.28 C 201.436 58.451 202.038 58.436 202.548 58.379 C 203.058 58.323 203.475 58.223 203.475 58.223 C 203.475 58.223 203.112 58.582 202.739 59.062 C 202.368 59.541 201.989 60.14 201.958 60.621 C 201.909 61.399 202.397 62.447 202.898 63.3 C 203.398 64.154 203.91 64.813 203.91 64.813 L 205.938 65.092 L 207.966 65.369 L 207.667 67.314 Z M 205.78 40.798 L 196.111 50.704 L 186.441 60.608 L 185.832 58.254 L 185.223 55.9 L 192.623 48.37 L 200.021 40.841 L 200.104 40.747 L 200.187 40.653 L 198.334 40.581 L 196.48 40.509 C 196.48 40.509 196.159 40.313 195.762 40.016 C 195.367 39.718 194.896 39.318 194.599 38.911 C 194.302 38.503 194.18 37.425 194.133 36.448 C 194.086 35.472 194.114 34.597 194.114 34.597 C 194.114 34.597 194.328 35.394 194.652 36.251 C 194.977 37.107 195.411 38.021 195.852 38.254 C 196.095 38.381 196.754 38.431 197.351 38.449 C 197.95 38.466 198.488 38.451 198.488 38.451 L 201.807 37.427 L 205.126 36.403 L 204.075 35.218 L 203.023 34.032 L 205.042 35.039 L 207.061 36.047 L 208.643 35.973 L 210.226 35.9 L 209.926 37.858 L 209.626 39.815 L 207.703 40.306 Z M 214.595 82.339 C 214.394 82.348 211.006 82.278 207.587 82.194 C 204.169 82.11 200.719 82.016 200.395 81.978 C 200.078 81.933 196.083 81.723 192.124 81.516 C 188.166 81.308 184.245 81.103 184.076 81.066 C 184.076 81.066 180.595 79.98 176.225 78.939 C 171.855 77.897 166.595 76.899 163.038 77.072 C 160.532 77.194 156.903 78.254 153.9 79.285 C 150.898 80.314 148.522 81.314 148.522 81.314 C 148.522 81.314 150.891 79.645 153.689 77.83 C 156.486 76.017 159.712 74.058 161.426 73.483 C 163.242 72.874 163.832 72.628 164.212 72.737 C 164.591 72.846 164.76 73.309 165.735 74.117 C 167.427 75.522 170.647 75.679 173.445 75.486 C 176.242 75.292 178.616 74.748 178.616 74.748 C 178.675 74.751 181.101 75.874 184.201 76.754 C 187.302 77.634 191.076 78.271 193.83 77.302 C 197.508 76.007 201.143 75.155 203.898 74.626 C 206.654 74.097 208.531 73.892 208.69 73.894 C 208.862 73.9 206.653 75.248 205.267 76.583 C 203.881 77.919 203.317 79.243 206.78 79.202 C 208.651 79.18 210.66 78.884 212.21 78.592 C 213.761 78.3 214.853 78.013 214.886 78.012 C 215.448 77.986 216.041 77.644 216.601 77.18 C 217.162 76.717 217.688 76.13 218.118 75.616 C 218.547 75.102 218.979 74.5 219.412 73.81 C 219.846 73.119 220.282 72.341 220.719 71.475 L 221.617 69.681 L 222.515 67.889 C 222.515 67.889 222.566 66.816 222.463 65.565 C 222.359 64.315 222.102 62.886 221.483 62.173 C 220.893 61.492 219.635 61.119 218.525 60.917 C 217.414 60.715 216.451 60.682 216.451 60.682 C 216.451 60.682 216.936 60.661 217.51 60.565 C 218.085 60.47 218.748 60.298 219.105 59.999 C 219.479 59.685 219.894 59.123 220.17 58.583 C 220.447 58.042 220.583 57.523 220.402 57.295 C 219.962 56.74 219.285 56.562 218.577 56.425 C 217.866 56.287 217.125 56.191 216.55 55.796 C 215.86 55.322 214.999 54.384 214.31 53.566 C 213.621 52.747 213.105 52.047 213.105 52.047 C 213.105 52.047 213.777 52.481 214.632 52.897 C 215.487 53.311 216.525 53.707 217.257 53.632 C 217.64 53.592 218.06 53.465 218.421 53.253 C 218.783 53.042 219.087 52.747 219.238 52.371 C 219.515 51.69 219.285 50.603 218.986 49.686 C 218.688 48.77 218.321 48.024 218.321 48.024 L 217.933 46.185 L 217.545 44.346 L 217.43 42.403 L 217.314 40.458 L 215.722 40.544 L 214.129 40.629 C 214.908 40.03 214.734 39.427 214.171 39.125 C 213.607 38.822 212.656 38.819 211.877 39.418 C 212.145 39.065 212.584 38.761 212.98 38.44 C 213.377 38.12 213.731 37.782 213.825 37.363 C 213.978 36.683 213.78 36.424 213.519 36.093 C 213.259 35.763 212.937 35.36 212.841 34.391 C 212.841 34.391 213.368 35.03 214.263 35.262 C 215.156 35.494 216.419 35.319 217.889 33.69 C 217.889 33.69 217.674 34.325 217.555 35.047 C 217.436 35.769 217.413 36.578 217.8 36.928 C 218.91 37.929 221.052 37.486 222.917 36.793 C 224.781 36.1 226.368 35.157 226.368 35.157 L 226.067 37.115 L 225.764 39.072 L 223.954 39.47 L 222.143 39.867 C 221.827 40.204 222.579 44.338 223.42 48.38 C 224.261 52.421 225.191 56.368 225.228 56.328 L 225.577 58.48 L 225.925 60.631 L 226.004 60.628 L 226.082 60.624 C 226.389 60.769 229.091 55.295 231.615 49.737 C 234.14 44.178 236.486 38.536 236.083 38.345 C 236.181 38.19 235.642 38.205 234.785 38.202 C 233.93 38.201 232.758 38.182 231.589 37.955 C 231.659 37.858 232.534 37.297 233.384 36.734 C 234.234 36.17 235.059 35.604 235.029 35.495 C 235.25 35.437 235.058 34.622 234.806 33.785 C 234.554 32.948 234.239 32.09 234.212 31.947 C 234.521 32.068 235.451 32.54 236.457 32.996 C 237.463 33.452 238.544 33.892 239.154 33.945 C 239.53 33.963 241.284 33.696 242.863 33.477 C 244.443 33.258 245.847 33.087 245.521 33.293 C 245.302 33.556 244.743 34.401 244.213 35.247 C 243.683 36.093 243.181 36.941 243.074 37.206 L 243.194 39.07 L 243.314 40.932 C 243.334 40.889 242.783 40.289 242.212 39.729 C 241.642 39.168 241.053 38.649 240.998 38.767 C 240.954 38.958 240.798 39.474 240.451 40.401 C 240.105 41.329 239.569 42.668 238.763 44.504 C 238.675 44.703 238.738 45.192 238.963 45.683 C 239.188 46.173 239.576 46.664 240.142 46.867 C 240.966 47.163 242.031 47.156 242.891 47.075 C 243.75 46.993 244.404 46.838 244.404 46.838 C 244.404 46.838 244.132 46.99 243.677 47.288 C 243.224 47.587 242.588 48.03 241.862 48.612 C 241.591 48.829 241.209 49.009 240.769 49.134 C 240.33 49.261 239.834 49.335 239.332 49.34 C 238.334 49.35 237.573 49.258 236.913 49.316 C 236.255 49.373 235.697 49.579 235.109 50.184 C 234.319 50.996 234.068 52.515 234.002 53.935 C 233.937 55.355 234.056 56.677 234.008 57.096 C 233.969 57.44 233.927 58.958 233.857 60.469 C 233.787 61.979 233.691 63.482 233.544 63.793 C 233.448 63.997 233.45 63.361 233.368 62.603 C 233.287 61.845 233.121 60.965 232.687 60.681 C 232.408 60.5 231.967 60.509 231.576 60.608 C 231.184 60.707 230.842 60.894 230.761 61.064 C 228.841 65.132 227.324 68.283 226.276 70.404 C 225.228 72.525 224.647 73.617 224.596 73.566 C 224.204 74.385 223.792 75.162 223.357 75.897 C 222.923 76.633 222.469 77.326 221.992 77.976 C 221.517 78.628 221.008 79.213 220.464 79.732 C 219.921 80.252 219.343 80.705 218.733 81.092 C 218.13 81.472 217.484 81.766 216.795 81.973 C 216.106 82.181 215.373 82.303 214.595 82.339 Z M 226.609 28.541 C 226.677 28.461 225.756 28.33 224.743 28.309 C 223.729 28.288 222.625 28.377 222.322 28.738 L 222.385 28.332 L 222.447 27.924 C 222.616 28.123 224.921 26.655 226.994 24.919 C 229.069 23.182 230.911 21.175 230.155 20.29 C 230.192 20.531 230.995 20.522 231.785 20.438 C 232.575 20.355 233.354 20.198 233.346 20.144 C 232.438 21.028 233.711 22.894 235.263 24.49 C 236.814 26.087 238.644 27.411 238.847 27.213 L 238.788 27.598 L 238.729 27.984 C 238.804 27.85 237.765 27.833 236.687 27.883 C 235.61 27.931 234.495 28.049 234.419 28.182 C 235.041 27.885 234.448 26.543 233.606 25.32 C 232.764 24.097 231.675 22.993 231.306 23.169 C 230.871 22.806 229.567 24.041 228.437 25.421 C 227.307 26.801 226.35 28.326 226.609 28.541 Z" style="white-space: pre; fill: url(#gradient-0);"/>
</svg>